<?xml version="1.0" standalone="no"?>
<!DOCTYPE svg PUBLIC "-//W3C//DTD SVG 20010904//EN"
 "http://www.w3.org/TR/2001/REC-SVG-20010904/DTD/svg10.dtd">
<svg version="1.0" xmlns="http://www.w3.org/2000/svg"
 width="300.000000pt" height="230.000000pt" viewBox="0 0 300.000000 230.000000"
 preserveAspectRatio="xMidYMid meet">
<metadata>
Created by potrace 1.10, written by Peter Selinger 2001-2011
</metadata>
<g transform="translate(0.000000,230.000000) scale(0.100000,-0.100000)"
fill="#eae32a" stroke="none">
<path d="M978 1965 l-11 -24 -27 19 c-40 28 -63 25 -85 -12 -25 -43 -26 -54
-7 -70 13 -11 15 -11 10 3 -7 18 26 79 42 79 6 0 25 -7 41 -16 28 -14 32 -14
48 0 24 22 35 20 81 -9 46 -29 48 -37 20 -82 -11 -18 -16 -33 -12 -33 11 0 42
59 42 81 0 17 -96 89 -120 89 -6 0 -15 -11 -22 -25z"/>
<path d="M1233 1926 l-33 -54 0 -186 0 -186 -55 0 c-30 0 -55 -4 -55 -10 0 -6
28 -10 65 -10 l65 0 0 192 0 191 31 49 c28 44 49 61 49 40 0 -4 -13 -29 -30
-55 l-30 -48 0 -199 0 -200 -66 0 c-107 0 -104 -4 -104 173 l-1 152 -23 -29
c-13 -15 -21 -36 -19 -46 4 -14 -3 -20 -26 -25 -41 -9 -87 -48 -111 -96 l-20
-38 27 -25 c15 -14 40 -31 55 -37 26 -11 32 -9 58 16 l30 29 0 -50 c0 -96 -45
-89 552 -89 l523 0 0 95 c-1 109 -24 204 -55 220 -31 17 -75 -13 -110 -73 -16
-28 -30 -62 -30 -75 0 -30 41 -71 80 -78 65 -14 35 -22 -70 -21 -104 2 -110 3
-110 23 0 26 -29 113 -46 138 -12 17 -14 16 -28 -18 -15 -35 -14 -40 4 -76 34
-67 32 -68 -79 -69 l-98 -1 -5 43 c-3 23 -15 65 -27 92 l-23 50 -19 -37 c-19
-37 -19 -38 1 -70 11 -18 20 -43 20 -55 0 -22 -3 -23 -110 -23 l-110 0 2 243
c0 133 4 220 7 192 l7 -50 4 54 c9 102 -36 121 -87 37z m-186 -268 c-3 -7 -5
-2 -5 12 0 14 2 19 5 13 2 -7 2 -19 0 -25z m1013 4 c0 -10 5 -23 12 -30 9 -9
8 -12 -4 -12 -9 0 -18 7 -22 15 -3 8 -12 15 -20 15 -10 0 -13 6 -10 15 9 22
44 19 44 -3z m-1030 -67 c0 -63 -11 -69 -66 -34 -40 24 -42 35 -11 43 12 3 32
14 42 25 30 30 35 26 35 -34z m250 3 c0 -10 -4 -18 -10 -18 -5 0 -10 15 -10
33 0 24 3 28 10 17 5 -8 10 -23 10 -32z m775 -11 c42 -73 35 -82 -35 -47 -33
17 -60 33 -60 37 0 12 43 53 56 53 7 0 25 -20 39 -43z m-522 -57 c-6 -7 -23
23 -23 40 0 8 6 4 13 -10 8 -14 12 -27 10 -30z m-563 -2 c0 -5 7 -8 16 -8 14
0 14 -2 -1 -16 -13 -14 -18 -14 -33 -2 -9 7 -21 19 -25 26 -5 7 -12 10 -18 7
-13 -9 -11 9 2 22 9 9 18 8 35 -5 13 -9 24 -20 24 -24z m820 -6 c0 -7 -4 -10
-10 -7 -5 3 -10 15 -10 26 0 13 -4 18 -12 13 -7 -5 -8 -3 -3 6 6 10 11 9 22
-5 7 -11 13 -25 13 -33z m296 -47 c20 -20 18 -63 -3 -69 -27 -8 -813 -4 -813
4 0 4 -21 3 -47 -1 -26 -5 -54 -7 -62 -4 -9 2 -33 5 -53 7 -21 1 -38 6 -38 10
0 8 17 12 35 8 34 -7 122 2 143 16 22 14 25 14 42 -1 14 -13 38 -16 116 -14
118 2 138 9 132 50 -3 17 -1 32 4 35 4 3 8 -7 8 -23 1 -52 15 -59 122 -58 100
1 112 5 121 40 4 18 5 18 6 -2 2 -34 35 -45 128 -44 81 1 123 12 123 30 0 9
-71 55 -79 51 -4 -2 -21 22 -21 32 0 9 119 -49 136 -67z m-819 3 c-3 -8 -6 -5
-6 6 -1 11 2 17 5 13 3 -3 4 -12 1 -19z"/>
<path d="M985 1591 c-3 -5 -1 -12 4 -15 5 -3 11 1 15 9 6 16 -9 21 -19 6z"/>
<path d="M2010 1570 c19 -13 30 -13 30 0 0 6 -10 10 -22 10 -19 0 -20 -2 -8
-10z"/>
<path d="M1005 1924 c-19 -29 -16 -36 29 -62 l33 -20 16 28 c16 27 16 27 -23
53 l-39 25 -16 -24z"/>
<path d="M891 1914 c-6 -15 -10 -27 -9 -29 2 -1 18 -12 36 -24 32 -22 34 -23
47 -5 22 29 18 40 -19 63 -42 26 -40 26 -55 -5z m47 -29 c-3 -3 -9 2 -12 12
-6 14 -5 15 5 6 7 -7 10 -15 7 -18z"/>
<path d="M1868 1922 c-7 -9 -20 -29 -28 -44 -12 -25 -11 -30 5 -48 14 -16 99
-70 110 -70 2 0 11 12 20 28 18 27 18 27 -2 10 -11 -10 -24 -18 -29 -18 -14 0
-77 40 -71 46 2 3 20 -4 38 -15 l34 -21 20 25 20 26 38 -27 c21 -14 39 -24 40
-22 1 1 8 13 15 25 16 30 17 27 -27 56 l-38 26 -12 -25 c-13 -29 -24 -30 -67
-4 l-32 21 -18 -31 c-31 -52 -47 -34 -19 20 16 32 33 36 68 19 22 -10 22 -10
2 6 -39 32 -52 35 -67 17z m167 -72 c3 -5 1 -10 -4 -10 -6 0 -11 5 -11 10 0 6
2 10 4 10 3 0 8 -4 11 -10z m-95 -10 c8 -5 11 -10 5 -10 -5 0 -17 5 -25 10 -8
5 -10 10 -5 10 6 0 17 -5 25 -10z"/>
<path d="M1974 1915 c-22 -33 -10 -45 14 -15 l19 23 47 -28 c26 -15 52 -37 56
-49 l9 -21 0 21 c1 15 -15 31 -58 58 -32 20 -62 36 -65 36 -3 0 -13 -11 -22
-25z"/>
<path d="M910 1833 c0 -10 54 -23 62 -15 6 6 -4 11 -26 14 -20 2 -36 3 -36 1z"/>
<path d="M1011 1781 c-17 -20 -31 -42 -31 -48 0 -7 -15 -20 -32 -29 -61 -30
-114 -99 -113 -144 0 -18 24 -53 44 -65 7 -4 3 6 -10 24 l-23 31 21 44 c22 45
70 88 111 101 12 3 22 11 22 18 0 15 51 87 62 87 4 0 13 -12 19 -27 6 -16 13
-23 16 -16 7 18 -14 50 -36 56 -14 3 -29 -6 -50 -32z"/>
<path d="M2082 1798 c-22 -23 -23 -23 -55 -5 l-32 17 30 -25 c17 -14 33 -25
36 -25 3 0 15 14 27 30 27 36 25 38 -6 8z"/>
<path d="M2000 1743 c-26 -9 -81 -67 -101 -105 -19 -37 -24 -83 -13 -112 11
-29 20 -16 16 24 -3 29 3 51 22 84 30 51 79 96 106 96 24 0 76 -61 85 -99 4
-17 10 -31 14 -31 16 0 -15 73 -44 105 -31 35 -59 47 -85 38z"/>
<path d="M1084 1625 c0 -55 1 -76 3 -47 2 29 2 74 0 100 -2 26 -3 2 -3 -53z"/>
<path d="M1460 1624 c-25 -57 -25 -59 1 -95 l20 -29 -80 0 c-47 0 -81 -4 -81
-10 0 -6 35 -10 85 -10 92 0 96 3 70 54 -14 26 -14 33 1 73 21 54 39 53 72 -2
15 -27 21 -32 16 -15 -6 24 -29 58 -49 72 -21 16 -35 6 -55 -38z"/>
<path d="M1706 1620 l-27 -51 21 -29 c11 -15 20 -31 20 -34 0 -3 -29 -6 -65
-6 -62 0 -65 1 -65 24 0 14 -4 28 -10 31 -13 8 -13 -4 1 -44 l11 -31 75 0 c72
0 74 1 68 23 -4 12 -11 26 -16 32 -14 14 -11 40 8 80 20 41 28 43 62 13 21
-19 20 -17 -3 10 -17 17 -35 32 -42 32 -6 0 -24 -23 -38 -50z"/>
<path d="M1313 1575 c0 -38 2 -53 4 -32 2 20 2 52 0 70 -2 17 -4 1 -4 -38z"/>
<path d="M1831 1528 c-3 -35 10 -48 50 -48 21 0 39 5 39 10 0 6 -18 10 -39 10
-33 0 -40 4 -44 23 -2 13 -5 15 -6 5z"/>
<path d="M2142 1470 c-3 -102 2 -100 -255 -102 l-222 -3 215 -3 c118 -1 225 0
237 3 17 4 23 15 28 48 4 23 5 58 2 77 -3 25 -4 20 -5 -20z"/>
<path d="M938 1458 c5 -5 16 -8 23 -6 8 3 3 7 -10 11 -17 4 -21 3 -13 -5z"/>
<path d="M1001 1440 c-1 -15 52 -80 64 -80 4 0 -4 13 -17 29 -12 15 -28 37
-35 47 -9 15 -12 16 -12 4z"/>
<path d="M1618 1363 c7 -3 16 -2 19 1 4 3 -2 6 -13 5 -11 0 -14 -3 -6 -6z"/>
<path d="M1631 1301 c-32 -44 -27 -75 15 -100 46 -27 59 -27 17 0 -37 23 -40
37 -18 79 18 35 24 36 74 11 53 -28 65 -44 51 -73 -11 -22 -11 -22 5 -3 8 11
14 26 13 35 -3 16 -103 80 -124 80 -7 0 -22 -13 -33 -29z"/>
<path d="M1320 1288 c-30 -50 -26 -65 35 -103 63 -41 71 -42 85 -15 10 19 10
20 -9 8 -16 -10 -26 -9 -56 8 -56 30 -62 40 -40 80 21 39 22 40 71 17 34 -17
36 -17 49 1 17 23 51 16 93 -19 32 -27 33 -53 4 -77 -16 -14 -16 -13 4 36 3 8
-9 21 -31 35 -20 11 -38 21 -39 21 -2 0 -11 -11 -20 -25 -16 -25 -16 -25 28
-54 25 -15 43 -31 39 -35 -3 -3 -2 -6 3 -6 12 1 39 39 48 67 6 18 0 28 -35 53
-59 42 -89 49 -107 22 -14 -21 -14 -21 -45 -1 -44 26 -54 24 -77 -13z m191
-65 c13 -16 12 -17 -3 -4 -17 13 -22 21 -14 21 2 0 10 -8 17 -17z"/>
<path d="M1661 1259 c-7 -16 -12 -31 -10 -33 16 -11 82 -46 83 -44 18 34 28
59 25 61 -6 5 -80 47 -82 47 -1 0 -8 -14 -16 -31z m60 -19 c5 0 9 -4 9 -10 0
-14 -13 -12 -36 6 -17 14 -17 15 -1 10 10 -3 23 -6 28 -6z"/>
<path d="M1356 1255 c-21 -32 -22 -30 20 -54 38 -22 48 -21 64 8 8 16 3 23
-29 44 l-39 26 -16 -24z m54 -37 c0 -5 -9 -4 -20 2 -11 6 -20 12 -20 14 0 2 9
2 20 -1 11 -3 20 -9 20 -15z"/>
<path d="M1480 1181 c14 -11 30 -21 35 -21 11 0 -7 14 -40 31 -13 7 -12 3 5
-10z"/>
<path d="M1744 1179 c-3 -6 -15 -9 -25 -6 -25 7 -24 1 1 -13 15 -8 21 -6 30
10 11 21 6 28 -6 9z"/>
<path d="M941 1114 c-22 -37 -26 -60 -13 -68 5 -3 14 10 20 29 20 53 34 59 81
36 22 -12 47 -31 55 -43 16 -23 30 -21 21 3 -7 17 -107 79 -128 79 -8 0 -24
-16 -36 -36z"/>
<path d="M1420 1101 c-63 -26 -144 -62 -179 -79 l-64 -32 -44 24 c-23 14 -43
22 -43 18 0 -4 23 -20 50 -35 l50 -28 33 19 c57 36 297 134 315 129 18 -4 -7
-17 -200 -102 -119 -52 -136 -67 -145 -118 -5 -30 0 -40 31 -73 29 -32 37 -36
45 -24 9 12 15 10 43 -15 73 -66 158 -150 158 -157 0 -4 -65 -8 -144 -10
l-144 -3 -6 43 c-3 23 -15 60 -27 83 -11 23 -18 43 -15 46 5 5 33 -52 56 -114
l12 -33 109 0 c66 0 109 4 109 10 0 6 -43 10 -110 10 l-110 0 -6 28 c-15 70
-61 142 -90 142 -15 0 -54 -70 -54 -97 0 -10 7 -27 15 -37 24 -32 18 -36 -51
-36 -41 0 -63 -4 -59 -10 3 -5 38 -10 76 -10 68 0 70 1 64 23 -4 12 -11 26
-16 32 -14 14 -11 42 7 78 21 40 21 40 32 33 6 -4 3 -22 -9 -46 -19 -39 -19
-40 1 -77 32 -60 30 -61 -80 -65 l-100 -3 0 27 c0 31 -37 135 -50 143 -5 3
-16 -10 -24 -29 -13 -32 -13 -38 5 -73 32 -62 30 -63 -79 -63 l-99 0 -18 39
c-10 22 -27 49 -39 60 l-22 21 -13 -36 c-12 -34 -11 -36 23 -74 45 -50 45 -76
3 -132 -46 -62 -107 -91 -177 -85 -55 5 -137 33 -127 44 4 3 36 -3 72 -12 55
-15 72 -16 105 -6 68 20 145 103 132 141 -3 8 -20 32 -39 53 -33 37 -33 37
-18 75 26 61 32 62 81 9 24 -27 44 -45 44 -39 0 17 -88 104 -102 100 -7 -2
-23 -26 -36 -52 l-23 -48 40 -44 c23 -24 41 -47 41 -51 0 -19 -42 -73 -76 -99
-32 -25 -46 -29 -98 -28 -37 0 -73 7 -92 17 -27 14 -34 14 -44 2 -16 -19 -2
-43 60 -98 86 -77 173 -79 253 -5 l42 39 -40 -29 c-90 -68 -167 -66 -242 4
-47 44 -40 41 50 -24 26 -19 41 -23 76 -19 73 8 162 86 177 156 3 14 7 32 10
39 3 9 97 12 428 12 l426 0 6 26 c4 14 2 36 -4 49 -17 37 -126 148 -212 216
-44 34 -77 66 -73 69 5 4 64 29 132 56 126 50 123 48 147 113 2 8 7 12 10 9
13 -14 -29 -86 -59 -101 -18 -9 -27 -16 -22 -16 30 -2 71 39 88 89 18 51 18
53 0 71 -17 17 -22 16 -133 -30z m78 -53 c-26 -24 -59 -39 -70 -32 -7 4 -8 3
-4 -4 5 -8 0 -12 -13 -12 -11 0 -41 -11 -67 -25 -26 -14 -53 -25 -60 -25 -8 0
-23 -9 -34 -20 -24 -24 -31 -25 -24 -5 6 14 89 60 98 53 2 -2 13 6 25 16 12
11 21 16 21 11 0 -4 7 -1 16 6 15 13 97 46 117 48 5 1 2 -5 -5 -11z m-243
-178 c20 -20 26 -33 19 -40 -13 -13 -64 31 -64 55 0 23 13 18 45 -15z m56 -47
c13 -16 12 -17 -3 -4 -17 13 -22 21 -14 21 2 0 10 -8 17 -17z m157 -139 c43
-45 22 -36 -24 10 -26 25 -50 46 -54 46 -4 0 -11 7 -14 16 -6 16 48 -26 92
-72z m-574 30 c9 -24 7 -28 -9 -14 -17 14 -20 30 -6 30 5 0 12 -7 15 -16z
m246 2 c0 0 4 -16 9 -34 13 -43 7 -41 -16 7 -14 27 -16 37 -6 34 7 -3 13 -6
13 -7z m-511 -55 c-15 -5 -22 6 -14 19 6 9 10 9 16 -1 5 -8 4 -15 -2 -18z
m877 -20 c-3 -5 1 -11 9 -15 8 -3 15 -17 15 -30 l0 -25 -421 -1 c-232 0 -425
-3 -430 -6 -5 -3 -9 3 -9 13 0 16 9 18 94 15 99 -4 136 6 136 36 0 12 4 10 13
-8 12 -24 17 -25 115 -27 93 -1 103 0 113 19 l11 20 14 -20 c13 -19 24 -21
157 -19 122 2 146 5 161 20 10 9 15 17 11 17 -3 0 -3 5 0 10 3 6 8 10 11 10 3
0 3 -4 0 -9z m-885 -197 c-12 -21 -21 -33 -21 -26 0 7 -12 -1 -27 -18 -33 -36
-84 -48 -128 -29 -30 12 -30 12 26 19 65 8 131 42 150 76 7 13 14 22 16 20 2
-2 -5 -21 -16 -42z"/>
<path d="M2341 1106 l-43 -44 11 -51 c6 -29 11 -139 11 -245 l0 -192 -33 -32
c-69 -67 -155 -49 -181 36 -17 54 -21 36 -5 -21 9 -32 18 -42 56 -59 39 -17
52 -19 83 -9 21 6 49 23 64 37 24 25 26 33 27 118 0 50 2 118 5 151 2 33 -1
105 -6 159 l-10 100 32 33 c36 37 52 41 67 16 9 -15 10 -16 11 -2 0 14 -29 49
-41 49 -3 0 -24 -20 -48 -44z"/>
<path d="M2623 1126 c-4 -7 -27 -16 -51 -19 -24 -3 -52 -13 -63 -23 -24 -21
-26 -86 -3 -108 19 -20 19 -20 35 1 10 12 11 15 1 9 -17 -10 -42 11 -42 36 0
31 45 68 82 68 19 0 43 7 55 15 12 8 24 11 27 6 9 -14 -27 -38 -68 -44 -44 -7
-60 -20 -71 -57 -7 -24 -7 -24 12 -7 11 9 26 17 35 17 34 0 79 24 94 49 l15
26 -7 -25 c-3 -14 -11 -31 -16 -37 -7 -9 -7 -13 0 -13 6 0 17 18 23 40 11 35
10 42 -6 60 -21 23 -41 26 -52 6z"/>
<path d="M979 1082 c-7 -15 -15 -30 -17 -34 -2 -5 2 -8 10 -8 7 0 24 -9 38
-20 14 -11 28 -20 32 -20 8 0 42 60 36 64 -2 1 -21 11 -44 24 l-41 22 -14 -28z
m56 -32 c8 -13 -5 -13 -25 0 -13 8 -13 10 2 10 9 0 20 -4 23 -10z"/>
<path d="M2369 1067 c-20 -25 -24 -38 -18 -62 4 -16 7 -127 8 -246 l1 -215
-32 -31 c-61 -57 -110 -67 -175 -36 -59 28 -75 65 -70 157 6 87 -3 89 -27 7
-21 -70 -20 -106 3 -157 52 -115 223 -117 325 -3 l36 39 0 206 c0 167 3 211
16 236 15 28 14 31 -5 45 -15 10 -21 25 -21 54 0 21 -3 39 -7 38 -5 0 -19 -15
-34 -32z m34 -63 c16 -22 17 -28 5 -47 -9 -13 -15 -56 -17 -107 -4 -121 -11
-113 -11 12 0 58 -3 120 -6 137 -8 37 4 40 29 5z m-16 -416 c-3 -7 -5 -2 -5
12 0 14 2 19 5 13 2 -7 2 -19 0 -25z m-8 -76 c-15 -44 -93 -87 -162 -89 -58
-2 -111 13 -102 27 3 5 -2 10 -10 14 -8 3 -15 13 -15 21 0 12 8 9 29 -13 27
-27 36 -29 97 -29 54 1 73 5 93 21 36 31 61 59 61 68 0 4 4 8 9 8 6 0 6 -10 0
-28z"/>
<path d="M2431 1054 c0 -11 3 -14 6 -6 3 7 2 16 -1 19 -3 4 -6 -2 -5 -13z"/>
<path d="M921 992 c-24 -48 -17 -61 54 -102 58 -33 68 -33 86 3 12 22 12 22
-10 3 -24 -22 -26 -18 -9 19 14 30 18 31 60 5 18 -11 36 -20 39 -20 6 0 32 51
27 55 -42 28 -82 47 -85 38 -2 -5 -9 -18 -16 -27 -12 -17 -15 -16 -50 4 -21
13 -39 21 -40 19 -2 -2 -11 -17 -20 -32 -27 -41 -40 -22 -17 23 23 45 24 50
10 50 -5 0 -18 -17 -29 -38z m205 -49 c-7 -7 -26 7 -26 19 0 6 6 6 15 -2 9 -7
13 -15 11 -17z m-116 2 c10 -12 9 -15 -7 -15 -11 0 -20 7 -20 15 0 8 4 15 7
15 4 0 13 -7 20 -15z m-21 -36 c18 -11 31 -23 28 -26 -6 -5 -77 34 -77 43 0 9
16 3 49 -17z"/>
<path d="M2454 992 c0 -20 -3 -46 -8 -57 -4 -12 -1 -10 8 5 17 27 20 58 8 77
-5 8 -8 -3 -8 -25z"/>
<path d="M2620 1003 c-8 -3 -27 -17 -42 -31 l-28 -26 0 -221 c0 -226 3 -246
40 -244 8 0 31 19 50 42 l34 42 -37 -34 c-43 -40 -48 -33 -12 15 25 32 25 34
25 236 l-1 203 -29 -35 -29 -35 -1 -207 c0 -132 -4 -208 -10 -208 -11 0 -12
19 -10 265 l1 170 34 34 c29 29 36 32 49 22 9 -8 17 -30 18 -50 1 -36 1 -36 5
-4 7 55 -16 81 -57 66z m3 -261 c-3 -53 -6 -99 -9 -101 -2 -2 -3 58 -3 135 1
89 4 125 9 101 4 -20 5 -81 3 -135z"/>
<path d="M1385 940 c-3 -6 1 -7 9 -4 18 7 21 14 7 14 -6 0 -13 -4 -16 -10z"/>
<path d="M1080 905 c0 -2 14 -12 31 -21 17 -8 56 -40 86 -70 39 -38 61 -53 74
-49 12 4 35 -10 73 -45 31 -27 60 -50 64 -50 4 1 -20 25 -52 55 -42 39 -67 55
-86 55 -20 0 -39 12 -64 40 -20 22 -36 45 -36 50 0 6 -8 10 -18 10 -10 0 -27
7 -38 15 -19 14 -34 19 -34 10z"/>
<path d="M1392 811 c119 -113 168 -177 169 -222 0 -32 1 -32 10 -10 7 19 4 33
-17 69 -33 57 -192 217 -244 246 -8 5 29 -33 82 -83z"/>
<path d="M2433 830 c0 -41 2 -58 4 -37 2 20 2 54 0 75 -2 20 -4 3 -4 -38z"/>
<path d="M2664 770 c0 -63 1 -89 3 -57 2 31 2 83 0 115 -2 31 -3 5 -3 -58z"/>
<path d="M820 788 c-25 -52 -25 -63 1 -96 l21 -27 -76 -3 c-99 -4 -90 -22 10
-22 80 0 83 3 58 52 -14 28 -14 34 1 74 22 58 35 57 75 -6 17 -27 20 -30 14
-10 -11 40 -44 80 -64 80 -13 0 -26 -14 -40 -42z"/>
<path d="M2031 707 c-45 -94 -36 -204 22 -265 33 -35 77 -62 99 -62 7 0 -5 9
-27 19 -22 10 -48 27 -57 37 -27 31 -48 90 -48 137 0 50 25 130 46 148 22 18
47 -8 39 -40 -4 -20 -3 -22 5 -11 14 22 12 37 -7 60 -27 31 -49 24 -72 -23z"/>
<path d="M931 715 c1 -19 18 -51 18 -35 0 8 -4 22 -9 30 -5 8 -9 11 -9 5z"/>
<path d="M2443 640 c0 -41 2 -58 4 -37 2 20 2 54 0 75 -2 20 -4 3 -4 -38z"/>
<path d="M2672 595 c0 -16 2 -22 5 -12 2 9 2 23 0 30 -3 6 -5 -1 -5 -18z"/>
<path d="M1544 540 c-6 -6 -171 -11 -419 -13 l-410 -2 417 -3 c287 -1 419 1
423 9 9 14 1 21 -11 9z"/>
<path d="M2427 518 c-10 -36 -91 -106 -141 -120 -23 -6 -45 -15 -51 -20 -21
-19 90 23 124 46 46 32 83 81 79 104 -3 12 -6 9 -11 -10z"/>
<path d="M806 474 c-9 -8 -16 -20 -16 -25 0 -6 -14 -1 -30 11 -17 12 -37 20
-46 18 -20 -4 -58 -72 -51 -91 3 -8 31 -29 63 -47 54 -32 58 -32 70 -15 8 11
14 23 14 29 0 5 -7 1 -15 -10 -14 -19 -15 -19 -62 7 -54 29 -62 52 -34 88 l19
25 41 -18 c40 -19 41 -19 59 4 l18 22 47 -28 c52 -32 59 -53 27 -94 -19 -25
-19 -25 -52 -7 l-33 18 29 -25 c23 -19 34 -22 48 -15 10 5 18 16 18 23 0 8 6
19 14 25 24 20 11 45 -44 84 -61 42 -63 43 -84 21z"/>
<path d="M715 414 c-9 -14 -15 -27 -13 -28 2 -1 18 -13 37 -26 l33 -23 22 27
21 27 37 -25 36 -25 16 24 c9 13 16 26 16 29 0 2 -17 14 -37 26 l-37 22 -19
-26 c-19 -26 -19 -26 -45 -8 -46 32 -49 32 -67 6z m55 -24 c0 -5 -7 -10 -15
-10 -8 0 -15 5 -15 10 0 6 7 10 15 10 8 0 15 -4 15 -10z m110 4 c0 -8 -19 -13
-24 -6 -3 5 1 9 9 9 8 0 15 -2 15 -3z"/>
<path d="M2188 373 c6 -2 18 -2 25 0 6 3 1 5 -13 5 -14 0 -19 -2 -12 -5z"/>
</g>
</svg>
